<svg width="80" height="80" viewBox="0 0 80 80" fill="none" xmlns="http://www.w3.org/2000/svg">
<g filter="url(#filter0_d_5137_46)">
<rect x="4" y="2" width="72" height="72" rx="36" fill="#EC5C2E"/>
<path d="M40 18.5C50.7698 18.5 59.5 27.2302 59.5 38V38.001C59.5062 42.2841 58.0961 46.4492 55.4893 49.8477L55.3379 50.0459L55.3428 50.0635L54.8066 50.6885C53.7098 51.9679 52.4519 53.1006 51.0654 54.0586C47.8141 56.3064 43.9537 57.5073 40.001 57.5H40C37.1865 57.5025 34.4056 56.8946 31.8496 55.7188C29.2938 54.543 27.023 52.8273 25.1943 50.6895L25.1934 50.6885L24.6562 50.0635L24.6621 50.0459L24.5107 49.8477C21.9037 46.4492 20.4936 42.2841 20.5 38.001V38C20.5 27.2302 29.2302 18.5 40 18.5ZM40 21.5C37.1142 21.4995 34.2785 22.2556 31.7764 23.6934C29.2741 25.1312 27.193 27.2007 25.7402 29.6943C24.2876 32.1878 23.5138 35.0186 23.4971 37.9043C23.4804 40.7902 24.2217 43.6304 25.6455 46.1406L26.0166 46.7959L26.4766 46.1992C27.363 45.0472 28.5022 44.114 29.8066 43.4727C31.111 42.8313 32.5455 42.4985 33.999 42.5H46.001C47.4545 42.4985 48.889 42.8313 50.1934 43.4727C51.4978 44.114 52.637 45.0472 53.5234 46.1992L53.9834 46.7959L54.3545 46.1406C55.7783 43.6304 56.5196 40.7902 56.5029 37.9043C56.4862 35.0186 55.7124 32.1878 54.2598 29.6943C52.807 27.2007 50.7259 25.1312 48.2236 23.6934C45.8777 22.3454 43.2387 21.5967 40.54 21.5088L40 21.5ZM40 26.5C41.4587 26.5 42.8572 27.0799 43.8887 28.1113C44.9201 29.1428 45.5 30.5413 45.5 32C45.5 33.4587 44.9201 34.8572 43.8887 35.8887C42.8572 36.9201 41.4587 37.5 40 37.5C38.5413 37.5 37.1428 36.9201 36.1113 35.8887C35.0799 34.8572 34.5 33.4587 34.5 32C34.5 30.5413 35.0799 29.1428 36.1113 28.1113C37.1428 27.0799 38.5413 26.5 40 26.5Z" fill="white" stroke="white"/>
</g>
<defs>
<filter id="filter0_d_5137_46" x="0" y="0" width="80" height="80" filterUnits="userSpaceOnUse" color-interpolation-filters="sRGB">
<feFlood flood-opacity="0" result="BackgroundImageFix"/>
<feColorMatrix in="SourceAlpha" type="matrix" values="0 0 0 0 0 0 0 0 0 0 0 0 0 0 0 0 0 0 127 0" result="hardAlpha"/>
<feOffset dy="2"/>
<feGaussianBlur stdDeviation="2"/>
<feColorMatrix type="matrix" values="0 0 0 0 0 0 0 0 0 0 0 0 0 0 0 0 0 0 0.1 0"/>
<feBlend mode="normal" in2="BackgroundImageFix" result="effect1_dropShadow_5137_46"/>
<feBlend mode="normal" in="SourceGraphic" in2="effect1_dropShadow_5137_46" result="shape"/>
</filter>
</defs>
</svg>
